# xmcd
#
# Track frame offsets: 
#        150
#        10733
#        18806
#        26181
#        33409
#        39159
#        49220
#        57787
#        64781
#        73914
#        87148
#        98624
#        108367
#        117781
#        129617
#        139788
#        147240
#        154739
#        164613
#        170973
#        175898
#        184621
#        191531
#        199164
#
# Disc length: 2740 seconds
#
# Revision: 4
# Processed by: cddbd v1.5.2PL0 Copyright (c) Steve Scherf et al.
# Submitted via: ExactAudioCopy v1.3
#
DISCID=4c0ab218
DTITLE=Various Artist - 24 Bluegrass Favorites - Vintage 60's
DYEAR=1900
DGENRE=Bluegrass
TTITLE0=Earl Taylor and Jim McCall with The Stoney Mountain Boys - Rol
TTITLE0=l in My Sweet Baby's Arms
TTITLE1=Don Reno and Bill Harrell with The Tennessee Cut-Ups - Gotta T
TTITLE1=ravel On
TTITLE2=Frosty Mountain Boys with Raymond Fairchild - Slew Foot (Bear 
TTITLE2=Tracks)
TTITLE3=Vassar Clements - Columbus Rag
TTITLE4=Red Smiley and The Bluegrass Cut-Ups - Rock about My Sarah Jan
TTITLE4=e
TTITLE5=Log Cabin Boys - Uncle Pen
TTITLE6=Don Reno and Bill Harrell with The Tennessee Cut-Ups - Molly a
TTITLE6=nd Tenbrooks
TTITLE7=Raymond Fairchild - Under the Double Eagle March
TTITLE8=Earl Taylor and Jim McCall with The Stoney Mountain Boys - Two
TTITLE8=Dollar Bill
TTITLE9=Hylo Brown and The Timberliners - Little John Henry
TTITLE10=Frosty Mountain Boys with Raymond Fairchild - Mama Like Blueg
TTITLE10=rass Music
TTITLE11=Don Reno and Red Smiley with Buck Ryan - Kansas City Railroad
TTITLE11=Blues
TTITLE12=Don Reno and Bill Harrell with The Tennessee Cut-Ups - Footpr
TTITLE12=ints in the Snow
TTITLE13=Mac Martin and The Dixie Travelers - Swinging a Nine Pound Ha
TTITLE13=mmer
TTITLE14=Earl Taylor and Jim McCall with The Stoney Mountain Boys - Fo
TTITLE14=ggy Mountain Top
TTITLE15=Don Reno and Bill Harrell with The Tennessee Cut-Ups - Dill P
TTITLE15=ickle Rag
TTITLE16=Red Smiley and The Bluegrass Cut-Ups - It's Raining Here This
TTITLE16=Morning
TTITLE17=Log Cabin Boys - Salty Dog Rag
TTITLE18=Earl Taylor and Jim McCall with The Stoney Mountain Boys - Cr
TTITLE18=ipple Creek
TTITLE19=Clarence "Tater" Tate with Red Smiley and The Bluegrass Cut-U
TTITLE19=ps - Sally Goodin
TTITLE20=Don Reno and Bill Harrell with The Tennessee Cut-Ups - Hot Co
TTITLE20=rn Cold Corn
TTITLE21=Jim Eanes with Red Smiley and The Bluegrass Cut-Ups - Lover's
TTITLE21=Lane
TTITLE22=Frosty Mountain Boys with Raymond Fairchild - Little Maggie
TTITLE23=Red Smiley and The Bluegrass Cut-Ups - Dear Old Dixie
EXTD=Enviado por: Alfredo Armendariz de Alfred's Sound! Systems de Nue
EXTD=vo Laredo, Tam. Mx.
EXTT0=
EXTT1=
EXTT2=
EXTT3=
EXTT4=
EXTT5=
EXTT6=
EXTT7=
EXTT8=
EXTT9=
EXTT10=
EXTT11=
EXTT12=
EXTT13=
EXTT14=
EXTT15=
EXTT16=
EXTT17=
EXTT18=
EXTT19=
EXTT20=
EXTT21=
EXTT22=
EXTT23=
PLAYORDER=
